<?xml version="1.0" encoding="UTF-8"?>
<svg width="800" height="450" viewBox="0 0 800 450" fill="none" xmlns="http://www.w3.org/2000/svg">
    <!-- Background -->
    <rect width="800" height="450" fill="#1F2937"/>
    
    <!-- Grid Pattern -->
    <pattern id="grid" x="0" y="0" width="40" height="40" patternUnits="userSpaceOnUse">
        <path d="M 40 0 L 0 0 0 40" fill="none" stroke="#006D77" stroke-width="0.5" opacity="0.1"/>
    </pattern>
    <rect width="800" height="450" fill="url(#grid)"/>
    
    <!-- Hero Section -->
    <rect x="100" y="50" width="600" height="200" rx="8" fill="#006D77"/>
    <rect x="140" y="100" width="300" height="40" rx="4" fill="#FFFFFF"/>
    <rect x="140" y="160" width="200" height="20" rx="4" fill="#83C5BE"/>
    
    <!-- Content Sections -->
    <rect x="100" y="270" width="280" height="160" rx="8" fill="#FFFFFF" filter="url(#shadow)"/>
    <rect x="120" y="290" width="100" height="20" rx="4" fill="#006D77"/>
    <rect x="120" y="320" width="240" height="10" rx="2" fill="#64748B"/>
    <rect x="120" y="340" width="240" height="10" rx="2" fill="#64748B"/>
    <rect x="120" y="360" width="240" height="10" rx="2" fill="#64748B"/>
    
    <rect x="420" y="270" width="280" height="160" rx="8" fill="#FFFFFF" filter="url(#shadow)"/>
    <rect x="440" y="290" width="100" height="20" rx="4" fill="#006D77"/>
    <rect x="440" y="320" width="240" height="10" rx="2" fill="#64748B"/>
    <rect x="440" y="340" width="240" height="10" rx="2" fill="#64748B"/>
    <rect x="440" y="360" width="240" height="10" rx="2" fill="#64748B"/>
    
    <!-- Decorative Elements -->
    <circle cx="50" cy="100" r="20" fill="#83C5BE" opacity="0.2"/>
    <circle cx="750" cy="200" r="30" fill="#006D77" opacity="0.2"/>
    <path d="M700 350 L730 370 L700 390" fill="#83C5BE" opacity="0.2"/>
    
    <!-- Shadow Filter -->
    <defs>
        <filter id="shadow" x="-4" y="-4" width="288" height="168" filterUnits="userSpaceOnUse">
            <feDropShadow dx="0" dy="4" stdDeviation="8" flood-opacity="0.1"/>
        </filter>
    </defs>
</svg>
