<?xml version="1.0" encoding="UTF-8"?>
<svg width="800" height="450" viewBox="0 0 800 450" xmlns="http://www.w3.org/2000/svg">
    <defs>
        <linearGradient id="headerGrad" x1="0%" y1="0%" x2="100%" y2="100%">
            <stop offset="0%" style="stop-color:#4A90E2;stop-opacity:1" />
            <stop offset="100%" style="stop-color:#357ABD;stop-opacity:1" />
        </linearGradient>
    </defs>
    <rect width="800" height="450" fill="#f5f5f5"/>
    <rect width="800" height="80" fill="url(#headerGrad)"/>
    <circle cx="50" cy="40" r="20" fill="white"/>
    <rect x="100" y="30" width="100" height="20" rx="10" fill="white" fill-opacity="0.7"/>
    <rect x="220" y="30" width="80" height="20" rx="10" fill="white" fill-opacity="0.7"/>
    <rect x="320" y="30" width="90" height="20" rx="10" fill="white" fill-opacity="0.7"/>
    
    <!-- Content Grid -->
    <g transform="translate(40, 120)">
        <rect width="220" height="280" rx="8" fill="white" stroke="#e0e0e0"/>
        <rect x="20" y="20" width="180" height="140" rx="4" fill="#e0e0e0"/>
        <rect x="20" y="180" width="140" height="16" rx="8" fill="#333"/>
        <rect x="20" y="210" width="180" height="12" rx="6" fill="#666"/>
        <rect x="20" y="230" width="160" height="12" rx="6" fill="#666"/>
    </g>
    
    <g transform="translate(290, 120)">
        <rect width="220" height="280" rx="8" fill="white" stroke="#e0e0e0"/>
        <rect x="20" y="20" width="180" height="140" rx="4" fill="#e0e0e0"/>
        <rect x="20" y="180" width="140" height="16" rx="8" fill="#333"/>
        <rect x="20" y="210" width="180" height="12" rx="6" fill="#666"/>
        <rect x="20" y="230" width="160" height="12" rx="6" fill="#666"/>
    </g>
    
    <g transform="translate(540, 120)">
        <rect width="220" height="280" rx="8" fill="white" stroke="#e0e0e0"/>
        <rect x="20" y="20" width="180" height="140" rx="4" fill="#e0e0e0"/>
        <rect x="20" y="180" width="140" height="16" rx="8" fill="#333"/>
        <rect x="20" y="210" width="180" height="12" rx="6" fill="#666"/>
        <rect x="20" y="230" width="160" height="12" rx="6" fill="#666"/>
    </g>
</svg>
