<?xml version="1.0" encoding="UTF-8"?>
<svg width="120" height="120" viewBox="0 0 120 120" fill="none" xmlns="http://www.w3.org/2000/svg">
    <!-- Gradient Definitions -->
    <defs>
        <linearGradient id="softwareGradient" x1="0%" y1="0%" x2="100%" y2="100%">
            <stop offset="0%" style="stop-color:#1a237e;stop-opacity:1" />
            <stop offset="100%" style="stop-color:#7b1fa2;stop-opacity:1" />
        </linearGradient>
        <filter id="softwareGlow" x="-50%" y="-50%" width="200%" height="200%">
            <feGaussianBlur in="SourceGraphic" stdDeviation="2" result="blur" />
            <feColorMatrix in="blur" type="matrix" values="1 0 0 0 0  0 1 0 0 0  0 0 1 0 0  0 0 0 18 -7" result="glow" />
            <feBlend in="SourceGraphic" in2="glow" mode="normal" />
        </filter>
        
        <!-- Circuit Pattern -->
        <pattern id="circuitPattern" x="0" y="0" width="40" height="40" patternUnits="userSpaceOnUse">
            <path d="M0 20h40M20 0v40" stroke="white" stroke-width="0.5" opacity="0.1"/>
            <circle cx="20" cy="20" r="2" fill="white" opacity="0.2"/>
        </pattern>
    </defs>
    
    <!-- Main Circle with Circuit Background -->
    <circle cx="60" cy="60" r="54" fill="url(#softwareGradient)" filter="url(#softwareGlow)" />
    <circle cx="60" cy="60" r="54" fill="url(#circuitPattern)" />
    
    <!-- Central Gear Animation -->
    <g transform="translate(60,60)">
        <!-- Outer Gear -->
        <g>
            <animateTransform attributeName="transform" type="rotate" from="0" to="360" dur="20s" repeatCount="indefinite"/>
            <path d="M-25,-25 L-20,-20 L-30,-10 L-25,-5 L-35,5 L-30,10 L-40,20 L-35,25 L-25,15 L-20,20 L-10,10 L-5,15 L5,5 L10,10 L20,0 L25,5 L15,15 L20,20 L10,30 L15,35 L25,25 L30,30 L40,20 L45,25 L35,35 L40,40 L30,50 L25,45 L35,35 L30,30 L20,40 L15,35 L5,45 L0,40 L10,30 L5,25 L-5,35 L-10,30 L-20,40 L-25,35 L-15,25 L-20,20 L-30,30 L-35,25 L-45,35 L-50,30 L-40,20 L-45,15 L-35,5 L-30,10 L-40,0 L-35,-5 L-25,-15 L-20,-10 Z" fill="white" opacity="0.2"/>
        </g>
        
        <!-- Inner Gear -->
        <g>
            <animateTransform attributeName="transform" type="rotate" from="360" to="0" dur="15s" repeatCount="indefinite"/>
            <path d="M-15,-15 L-12,-12 L-18,-6 L-15,-3 L-21,3 L-18,6 L-24,12 L-21,15 L-15,9 L-12,12 L-6,6 L-3,9 L3,3 L6,6 L12,0 L15,3 L9,9 L12,12 L6,18 L9,21 L15,15 L18,18 L24,12 L27,15 L21,21 L24,24 L18,30 L15,27 L21,21 L18,18 L12,24 L9,21 L3,27 L0,24 L6,18 L3,15 L-3,21 L-6,18 L-12,24 L-15,21 L-9,15 L-12,12 L-18,18 L-21,15 L-27,21 L-30,18 L-24,12 L-27,9 L-21,3 L-18,6 L-24,0 L-21,-3 L-15,-9 L-12,-6 Z" fill="white" opacity="0.3"/>
        </g>
    </g>
    
    <!-- Connecting Lines -->
    <g stroke="white" stroke-width="1" opacity="0.4">
        <line x1="30" y1="60" x2="45" y2="60">
            <animate attributeName="x2" values="30;45;30" dur="2s" repeatCount="indefinite"/>
        </line>
        <line x1="75" y1="60" x2="90" y2="60">
            <animate attributeName="x1" values="90;75;90" dur="2s" repeatCount="indefinite"/>
        </line>
        <line x1="60" y1="30" x2="60" y2="45">
            <animate attributeName="y2" values="30;45;30" dur="2s" repeatCount="indefinite"/>
        </line>
        <line x1="60" y1="75" x2="60" y2="90">
            <animate attributeName="y1" values="90;75;90" dur="2s" repeatCount="indefinite"/>
        </line>
    </g>
    
    <!-- Data Points -->
    <g fill="white">
        <circle cx="30" cy="60" r="3" opacity="0.8">
            <animate attributeName="r" values="2;3;2" dur="1s" repeatCount="indefinite"/>
        </circle>
        <circle cx="90" cy="60" r="3" opacity="0.8">
            <animate attributeName="r" values="3;2;3" dur="1s" repeatCount="indefinite"/>
        </circle>
        <circle cx="60" cy="30" r="3" opacity="0.8">
            <animate attributeName="r" values="2;3;2" dur="1s" repeatCount="indefinite"/>
        </circle>
        <circle cx="60" cy="90" r="3" opacity="0.8">
            <animate attributeName="r" values="3;2;3" dur="1s" repeatCount="indefinite"/>
        </circle>
    </g>
</svg>
