<?xml version="1.0" encoding="UTF-8"?>
<svg width="0" height="0" class="hidden">
  <symbol id="phone-icon" viewBox="0 0 24 24">
    <path d="M20 15.5c-1.2 0-2.4-.2-3.6-.6-.3-.1-.7 0-1 .2l-2.2 2.2c-2.8-1.4-5.1-3.8-6.6-6.6l2.2-2.2c.3-.3.4-.7.2-1-.3-1.1-.5-2.3-.5-3.5 0-.6-.4-1-1-1H4c-.6 0-1 .4-1 1 0 9.4 7.6 17 17 17 .6 0 1-.4 1-1v-3.5c0-.6-.4-1-1-1zM19 12h2c0-4.4-3.6-8-8-8v2c3.3 0 6 2.7 6 6zm-4 0h2c0-2.2-1.8-4-4-4v2c1.1 0 2 .9 2 2z" fill="#006D77"/>
  </symbol>
  <symbol id="email-icon" viewBox="0 0 24 24">
    <path d="M20 4H4c-1.1 0-2 .9-2 2v12c0 1.1.9 2 2 2h16c1.1 0 2-.9 2-2V6c0-1.1-.9-2-2-2zm0 4l-8 5-8-5V6l8 5 8-5v2z" fill="#006D77"/>
  </symbol>
  <symbol id="location-icon" viewBox="0 0 24 24">
    <path d="M12 2C8.13 2 5 5.13 5 9c0 5.25 7 13 7 13s7-7.75 7-13c0-3.87-3.13-7-7-7zm0 9.5c-1.38 0-2.5-1.12-2.5-2.5s1.12-2.5 2.5-2.5 2.5 1.12 2.5 2.5-1.12 2.5-2.5 2.5z" fill="#006D77"/>
  </symbol>
</svg>
